<?xml version="1.0" standalone="no"?><!DOCTYPE svg PUBLIC "-//W3C//DTD SVG 1.1//EN" "http://www.w3.org/Graphics/SVG/1.1/DTD/svg11.dtd"><svg t="1781257244169" class="icon" viewBox="0 0 1024 1024" version="1.1" xmlns="http://www.w3.org/2000/svg" p-id="30514" xmlns:xlink="http://www.w3.org/1999/xlink" width="200" height="200"><path d="M534.4 247.808c43.776 0 98.645333-29.952 131.328-69.888 29.610667-36.181333 51.2-86.698667 51.2-137.258667 0-6.826667-0.64-13.696-1.877333-19.328-48.682667 1.877333-107.264 33.066667-142.421334 74.88-27.733333 31.786667-53.034667 81.706667-53.034666 132.864 0 7.509333 1.237333 14.976 1.834666 17.493334 3.072 0.597333 8.021333 1.237333 12.970667 1.237333zM380.16 1002.666667c59.818667 0 86.357333-40.533333 160.981333-40.533334 75.818667 0 92.501333 39.253333 159.104 39.253334 65.365333 0 109.141333-61.098667 150.442667-121.002667 46.250667-68.608 65.365333-135.978667 66.602667-139.093333-4.309333-1.28-129.493333-53.034667-129.493334-198.4 0-126.037333 98.645333-182.784 104.192-187.178667-65.365333-94.805333-164.650667-97.28-191.744-97.28-73.386667 0-133.205333 44.885333-170.837333 44.885333-40.704 0-94.336-42.410667-157.866667-42.410666C250.709333 260.906667 128 361.941333 128 552.874667c0 118.528 45.653333 243.925333 101.76 325.034666C277.845333 946.517333 319.786667 1002.666667 380.16 1002.666667z" fill="#000000" fill-opacity=".85" p-id="30515"></path></svg>