<?xml version="1.0" standalone="no"?><!DOCTYPE svg PUBLIC "-//W3C//DTD SVG 1.1//EN" "http://www.w3.org/Graphics/SVG/1.1/DTD/svg11.dtd"><svg t="1781257141807" class="icon" viewBox="0 0 1024 1024" version="1.1" xmlns="http://www.w3.org/2000/svg" p-id="25643" xmlns:xlink="http://www.w3.org/1999/xlink" width="200" height="200"><path d="M930.816 441.685333h-410.112v168.533334h234.282667a200.064 200.064 0 0 1-86.954667 131.498666c-39.04 26.112-88.874667 41.557333-147.456 41.557334-113.408 0-209.322667-76.629333-243.626667-179.626667a264.021333 264.021333 0 0 1-13.653333-82.773333c0-28.672 5.034667-56.618667 13.653333-82.730667 34.389333-102.826667 130.346667-179.456 243.754667-179.456 63.872 0 121.216 22.016 166.4 65.152l124.885333-125.013333C736.426667 128.512 638.08 85.333333 520.704 85.333333A435.2 435.2 0 0 0 85.333333 521.002667 435.2 435.2 0 0 0 520.704 956.586667c117.589333 0 216.106667-39.04 288.085333-105.557334C891.136 775.210667 938.666667 663.509333 938.666667 530.773333c0-30.848-2.730667-60.501333-7.850667-89.088z" p-id="25644"></path></svg>