<?xml version="1.0" standalone="no"?><!DOCTYPE svg PUBLIC "-//W3C//DTD SVG 1.1//EN" "http://www.w3.org/Graphics/SVG/1.1/DTD/svg11.dtd"><svg t="1781347279023" class="icon" viewBox="0 0 1024 1024" version="1.1" xmlns="http://www.w3.org/2000/svg" p-id="14053" xmlns:xlink="http://www.w3.org/1999/xlink" width="200" height="200"><path d="M132.246136 0.56257l4.02973-0.005962c3.694133-0.004259 7.387414-0.004259 11.081547-0.002556 4.016954 0 8.03476-0.003407 12.052566-0.006814 7.969174-0.006814 15.938347-0.008518 23.907521-0.008518 9.545803-0.001704 19.091605-0.006814 28.636556-0.012776 23.071933-0.013628 46.143015-0.018739 69.214948-0.022998 10.914599-0.001704 21.830902-0.005111 32.745501-0.008518a515613.573559 515613.573559 0 0 1 142.116363-0.025553c37.920865-0.002555 75.84173-0.015332 113.762594-0.034922a245041.969506 245041.969506 0 0 1 135.261306-0.035775h3.284431c17.437465 0 34.874078-0.010221 52.311543-0.022146 17.529456-0.012777 35.059765-0.015332 52.590073-0.008518 10.410351 0.003407 20.821553 0 31.231904-0.012776 6.960676-0.008518 13.922204-0.007666 20.882881 0.000852 3.961589 0.005111 7.923178 0.005111 11.884767-0.005111C918.34345 0.245711 954.149366 8.021533 984.486058 37.300324l2.199274 2.035734c14.738201 14.019306 25.297612 33.0334 31.232755 52.371168l0.604758 1.943742c3.403679 11.670972 4.676225 23.192885 4.616601 35.300816l0.011925 4.099576c0.011073 3.727352 0.005962 7.453852-0.001704 11.180352-0.005962 4.065505 0.003407 8.13101 0.010222 12.196515 0.010221 7.115699 0.011925 14.231397 0.005962 21.347948-0.007666 10.581557 0 21.163965 0.008518 31.745522 0.017035 18.903364 0.019591 37.805876 0.015332 56.708388a93106.968322 93106.968322 0 0 0 0.005962 66.335108c0.008518 31.104138 0.013628 62.209128 0.006814 93.314118v1.775091l-0.00511 19.600113v1.787868l-0.001704 7.154881c-0.008518 37.722402-0.002555 75.443952 0.017035 113.165502l0.015332 28.513901 0.000852 1.773389c0.008518 18.049037 0.013628 36.098926 0.01448 54.148814v1.718023a242857.274548 242857.274548 0 0 1-0.00511 55.693928c-0.001704 16.529477 0.004259 33.059805 0.016183 49.589282 0.012777 18.802855 0.012777 37.605709-0.001703 56.408564-0.008518 10.516822-0.007666 21.032792 0.007666 31.549614 0.008518 7.032225 0.005111 14.066154-0.008518 21.098379-0.006814 4.002474-0.008518 8.003245 0.004259 12.004867 0.12521 41.280251-9.350747 75.415844-38.770081 105.536186-23.112818 23.083006-55.047433 36.337422-87.707758 36.370641l-3.766533-0.005111-4.044211 0.005963c-3.71202 0.004259-7.423188 0.004259-11.135208 0.002555-4.035693 0-8.071386 0.003407-12.10708 0.006814-8.006652 0.006814-16.013303 0.008518-24.020806 0.008518-9.590947 0.001704-19.180189 0.006814-28.770284 0.012776-23.179256 0.013628-46.359365 0.018739-69.538621 0.022998-10.965706 0.001704-21.931411 0.005111-32.897969 0.008518a520277.206219 520277.206219 0 0 1-142.765413 0.025553c-38.098033 0.002555-76.196067 0.015332-114.294099 0.034923-27.377638 0.01448-54.756128 0.028108-82.133766 0.031515h-1.70695a340741.379186 340741.379186 0 0 1-52.038125 0.004259h-3.299762c-17.519235 0-35.037619 0.010221-52.556002 0.022146-17.612078 0.012777-35.223305 0.015332-52.834531 0.008518-10.459753-0.003407-20.919507 0-31.37926 0.012776-6.993044 0.008518-13.986087 0.007666-20.979131-0.000851a3096.495851 3096.495851 0 0 0-11.941836 0.00511c-41.448902 0.10562-77.160272-8.487902-107.51911-38.494107C23.69553 971.955097 13.830314 956.412823 7.504207 938.474516l-0.585167-1.635401c-4.79888-13.630047-6.623375-27.1911-6.550122-41.581778-0.003407-1.368797-0.006814-2.737593-0.011925-4.106391-0.009369-3.729907-0.003407-7.458111 0.00511-11.188018 0.005962-4.068912-0.002555-8.138676-0.008517-12.207588-0.008518-7.120809-0.008518-14.24247-0.002556-21.364131 0.009369-10.590074 0.005111-21.180149-0.003407-31.770224-0.012777-18.915289-0.011925-37.831429-0.004259-56.747569 0.005962-16.553326 0.008518-33.106653 0.005111-49.659979l-0.000852-3.328723-0.002555-13.378774c-0.002555-12.465675-0.003407-24.93135-0.004259-37.396173v-1.720579a148521.975138 148521.975138 0 0 1 0.007666-56.009083l0.008518-28.551379c0.012777-37.744548 0.011925-75.489096 0-113.233645l-0.008518-28.539454-0.000852-1.775091a147782.826615 147782.826615 0 0 1-0.006814-55.899205 312304.388047 312304.388047 0 0 1 0.008518-55.704149c0.002555-16.542253-0.000852-33.085358-0.007666-49.627612-0.006814-18.810521-0.005111-37.621893 0.008518-56.432414 0.007666-10.524488 0.008518-21.049828-0.001704-31.575167-0.005962-7.032225-0.002555-14.066154 0.008518-21.099231 0.006814-4.005029 0.008518-8.010059 0-12.015088-0.008518-3.651544-0.005111-7.302237 0.007666-10.952929 0.002555-1.304914 0-2.610679-0.005963-3.915593C0.202822 93.708037 14.182095 62.687372 37.316208 39.003867l2.029771-2.189052C63.280757 11.61686 98.245975 0.51913 132.246136 0.56257z" fill="#4D53E8" p-id="14054"></path><path d="M513.038227 162.177685c2.916465 0.013628 5.831227 0 8.747693-0.017036 16.762862-0.015332 33.453324 1.407126 49.85759 4.98116l2.901134 0.63031C594.165199 172.286508 613.880301 178.977173 631.852678 188.063871l2.375591 1.183962c20.572836 10.302176 39.635481 22.38285 56.840412 37.729216 1.107303 0.984648 2.227382 1.954815 3.349165 2.92328C705.033474 239.180379 715.258138 249.273019 723.843995 260.464444c0.913099 1.137115 1.828753 2.272526 2.745259 3.407085 10.449532 13.034658 19.181041 27.025004 27.066741 41.736801l0.850068 1.568963c5.75542 10.716137 10.161633 21.996998 14.481818 33.353667l0.695046 1.818532c11.884767 31.611794 14.075523 64.570238 13.957979 97.945199-0.011073 3.602993-0.011925 7.205986-0.013629 10.808128-0.005111 6.78947-0.019591 13.579792-0.036626 20.369262-0.018739 7.743454-0.028108 15.486908-0.036626 23.230363-0.017887 15.899166-0.047699 31.799183-0.086029 47.698349l2.782737-0.011073c8.68381-0.034923 17.36762-0.060476 26.050578-0.076659 4.463282-0.009369 8.927417-0.021294 13.391551-0.040886 4.312519-0.018739 8.625889-0.02896 12.93926-0.033219 1.63966-0.002555 3.27932-0.008518 4.919832-0.017887 10.834533-0.059624 21.013202-0.034071 31.055587 4.545053l1.754649 0.78874c15.503092 7.228984 27.08548 20.479993 33.171387 36.379159 5.774159 18.772191 4.914721 37.645743-4.153237 55.124944-2.451398 4.514389-5.100407 8.608002-8.626741 12.368573l-1.946298 2.082581c-12.061084 11.897544-28.131456 16.549067-43.889228 21.606887-2.045103 0.667789-4.090206 1.335578-6.133606 2.005922-4.06295 1.328763-8.1259 2.651565-12.191404 3.969255a1656.906706 1656.906706 0 0 0-15.120647 4.994787l-2.134539 0.715488-5.943662 1.996553C786.244771 696.571425 786.244771 696.571425 783.467996 696.571425l0.017035 2.08684c0.051106 6.539049 0.090288 13.078099 0.11499 19.618 0.013628 3.360238 0.031516 6.720477 0.060475 10.081567 0.028108 3.253767 0.042589 6.50583 0.050255 9.759597 0.004259 1.23081 0.013628 2.461619 0.027257 3.693281 0.214646 19.732137-5.543329 35.569976-19.275588 49.946174-4.367884 4.229045-8.883976 7.524549-14.21351 10.434201l-2.1635 1.188221c-15.313147 7.656574-32.580258 8.410391-48.942787 3.922407-6.424912-2.5485-12.546593-5.826117-18.698939-8.957228l-4.757143-2.402848c-3.878967-1.959074-7.757083-3.921556-11.629236-5.894258a1796.253107 1796.253107 0 0 0-8.14549-4.12087c-1.528078-0.771705-3.051897-1.551928-4.575717-2.333002l-2.818511-1.413941-2.468434-1.252104c-2.36111-0.917358-4.022917-1.064714-6.530532-0.882435l-0.505952 1.324505C625.410731 816.194207 604.454598 844.322256 569.673363 860.111543c-4.734997 1.998256-9.571356 3.600438-14.480115 5.110629l-1.858565 0.595388c-19.003021 6.043318-38.98132 6.987933-58.617208 3.663469l-1.905413-0.319414C467.886675 864.830357 445.700584 853.78714 427.427531 836.261943l-2.436067-2.242715C409.438118 819.408793 400.166586 800.84273 393.356673 780.896798c-4.236711-1.066418-6.339735-0.651605-10.193149 1.343244l-2.982904 1.517005-1.575777 0.826218a440.354766 440.354766 0 0 1-4.948792 2.546797 1772.495498 1772.495498 0 0 0-10.537265 5.425784 2183.460742 2183.460742 0 0 1-12.158185 6.241781 618.888616 618.888616 0 0 0-4.809102 2.496542c-17.114644 8.8235-34.719908 10.766391-53.303857 6.007544-2.71204-0.911395-5.148958-2.056176-7.665943-3.407086l-2.182238-1.024681c-13.517613-6.682147-25.627248-19.750876-30.624591-33.997605-2.293821-7.001561-3.930073-13.63175-3.916445-21.051531v-1.688211c0-1.825346 0.006814-3.650692 0.013628-5.475187l0.004259-3.815936c0.002555-3.336389 0.011073-6.671926 0.020443-10.007463 0.008518-3.408789 0.012777-6.817579 0.017035-10.226368 0.008518-6.677888 0.02385-13.35748 0.041737-20.03622l-2.381553-0.551948c-9.610537-2.284451-18.93999-5.234136-28.308624-8.351619l-4.827841-1.597923a5307.841886 5307.841886 0 0 1-10.050903-3.3415 3232.606373 3232.606373 0 0 0-12.764647-4.220527 2895.105565 2895.105565 0 0 1-9.94869-3.301466c-1.566408-0.521284-3.133667-1.039161-4.701779-1.55278C161.748943 669.118831 148.556707 664.167484 137.825239 653.982853l-2.035734-1.930114c-13.288486-13.649637-17.108681-31.411627-16.886369-49.907845 0.143098-4.927498 1.011904-9.137804 2.738445-13.748443l0.907988-2.878136c3.52463-10.780871 9.072218-18.875255 16.979212-26.933865l1.553632-1.616662c7.354195-7.051816 17.468129-11.808959 27.406598-13.715224l2.220568-0.444624c3.477783-0.489769 6.843984-0.519581 10.350726-0.504249h2.218013c2.405403 0 4.811657 0.006814 7.21706 0.013628l5.019489 0.004259c4.394289 0.002555 8.788578 0.011073 13.182015 0.020443 4.488836 0.008518 8.975968 0.012777 13.463951 0.017035 8.798799 0.008518 17.596746 0.02385 26.394694 0.041737l-0.00937-2.001663c-0.076659-16.200693-0.132025-32.403089-0.166947-48.604634-0.017035-7.836297-0.041737-15.671743-0.080918-23.507188-0.034071-6.843132-0.056217-13.687115-0.063031-20.530248-0.004259-3.611511-0.01448-7.22217-0.040034-10.832829-0.296416-44.108984 7.75112-86.569791 27.616986-126.205272l1.073232-2.172017c7.971729-16.033746 17.585673-30.687622 28.738769-44.675413l2.042548-2.595347c11.40522-14.245877 24.41177-27.968767 38.842481-39.141453l2.595348-2.122615C362.271274 209.284904 376.608291 200.171802 391.65313 192.322728l1.792979-0.936949c21.609442-11.21783 44.326186-19.366727 68.158751-24.29678l2.378146-0.501694c16.28587-3.228214 32.472083-4.501612 49.055221-4.40962z" fill="#FEFEFE" p-id="14055"></path><path d="M463.730882 621.229685c3.097041 1.891784 5.572289 4.328702 8.191486 6.824393 14.123222 12.484414 30.998518 17.725364 49.636129 16.732198 15.542274-1.265732 28.944897-8.197448 40.316046-18.652091 6.490498-5.871261 12.303839-7.690644 21.114563-7.396783 7.199172 0.810035 12.475045 4.45732 17.348029 9.692307 4.709444 6.071427 6.927457 12.756981 5.9624 20.442515-1.613255 6.770731-4.490539 11.325153-9.369486 16.183657l-1.510191 1.66351C580.550484 682.654331 558.331174 691.8952 537.306048 695.719654l-3.213734 0.586018c-29.654423 4.631081-60.663163-2.188201-85.21803-19.571152-3.246953-2.38496-6.390841-4.884909-9.521953-7.419781l-1.833012-1.40372c-5.493926-4.352552-9.784299-10.630108-11.795331-17.335252-0.838143-7.966618-0.007666-14.082337 4.751181-20.571984 8.494717-10.274067 20.509805-14.584883 33.255713-8.774098z" fill="#484CE9" p-id="14056"></path><path d="M414.650959 520.254735c6.076538 4.656635 9.813259 10.340505 11.073029 17.887201 0.089436 1.934373 0.13458 3.871301 0.150763 5.808229l0.017036 1.718023c0.017035 1.867935 0.026405 3.735018 0.034923 5.602953l0.011073 1.946298c0.017035 3.401975 0.029812 6.803099 0.037477 10.205073 0.009369 3.491411 0.039181 6.981971 0.072401 10.47253 0.022998 2.703523 0.029812 5.407897 0.032367 8.11142 0.004259 1.286175 0.01448 2.571498 0.029812 3.856821 0.119248 10.178669-0.804072 18.982578-8.114826 26.622116-6.413839 5.723904-13.120687 7.955545-21.697174 7.79882-7.292015-0.92332-13.153055-4.699223-17.847167-10.237441L377.173015 607.987194l-0.851771-1.366241c-3.514409-6.5876-3.081709-13.594272-3.068081-20.849661-0.005962-1.415644-0.013628-2.83214-0.022146-4.247785-0.011925-2.959054-0.011925-5.918108-0.002555-8.87631a860.97058 860.97058 0 0 0-0.058772-11.297045c-0.025553-2.922428-0.026405-5.844856-0.021295-8.767283a351.294395 351.294395 0 0 0-0.027256-4.160904c-0.103064-9.476809 0.898619-17.508162 7.412115-24.949237C390.157419 513.992512 403.313881 513.641582 414.650959 520.254735z" fill="#3439D0" p-id="14057"></path><path d="M641.281788 543.013217c8.018576 3.040824 12.241659 8.108864 16.124034 15.571233 2.13965 6.419801 1.933521 14.940923-1.064715 21.028534A75.460136 75.460136 0 0 1 653.998736 583.285822l-1.544262 2.396034c-5.17366 5.17366-11.388184 7.985357-18.737268 8.149749-5.85167-0.017035-10.689732-0.063883-15.492871-3.731611l-1.797238-1.314283c-4.127684-3.292097-6.490498-6.580786-8.424019-11.462289l-0.91821-2.033178c-2.200977-6.237522-1.215478-13.083209 1.497414-18.991948 3.619177-6.349104 8.217891-9.944432 14.752682-13.045732 4.734997-2.367925 12.884747-1.425014 17.946824-0.239347z" fill="#343AD0" p-id="14058"></path></svg>