<?xml version="1.0" standalone="no"?><!DOCTYPE svg PUBLIC "-//W3C//DTD SVG 1.1//EN" "http://www.w3.org/Graphics/SVG/1.1/DTD/svg11.dtd"><svg t="1781414828184" class="icon" viewBox="0 0 1024 1024" version="1.1" xmlns="http://www.w3.org/2000/svg" p-id="7659" xmlns:xlink="http://www.w3.org/1999/xlink" width="200" height="200"><path d="M1023.741511 511.865635A511.865635 511.865635 0 1 1 759.277599 63.983204 341.243757 341.243757 0 0 1 790.842646 0c6.31301 27.981988 8.104539 56.817086 5.118657 85.310939A511.950946 511.950946 0 0 1 1023.741511 511.865635z" fill="#FFDC00" p-id="7660"></path><path d="M723.447005 710.640124c12.028842 23.460508 18.17123 49.480345 17.915297 75.926736A212.424239 212.424239 0 0 1 511.875875 981.075801a212.424239 212.424239 0 0 1-224.36777-194.508941A212.424239 212.424239 0 0 1 511.875875 592.057918a255.932818 255.932818 0 0 1 73.367408 10.237313l-255.932818-450.441759a22.180844 22.180844 0 0 1 17.915298-32.418157C451.305108 113.463549 737.949864 85.310939 790.842646 0a548.549339 548.549339 0 0 1-293.46963 319.916022c34.977485 71.661189 165.503222 290.057193 210.718019 362.571492l15.35597 25.593281v2.559329z" fill="#2DC484" p-id="7661"></path></svg>