<?xml version="1.0" standalone="no"?><!DOCTYPE svg PUBLIC "-//W3C//DTD SVG 1.1//EN" "http://www.w3.org/Graphics/SVG/1.1/DTD/svg11.dtd"><svg t="1781204846634" class="icon" viewBox="0 0 1024 1024" version="1.1" xmlns="http://www.w3.org/2000/svg" p-id="9140" xmlns:xlink="http://www.w3.org/1999/xlink" width="200" height="200"><path d="M239.958016 619.384832c-78.424064 46.372864-103.913472 144.678912-54.89664 220.729344 47.054848 72.337408 145.084416 96.45056 223.50848 55.64416l364.673024-198.47168-337.22368-183.629824-196.061184 105.728z" fill="#ec8031" fill-opacity="0.84" p-id="9141"></path><path d="M772.917248 697.647104l-337.524736-183.830528-56.184832 30.57664L772.9152 697.647104z" fill="#e37630" p-id="9142"></path><path d="M774.672384 328.505344L409.99936 130.035712c-82.345984-40.808448-184.297472-12.98432-229.390336 64.917504-41.17504 74.196992-15.683584 166.938624 58.81856 211.456l196.061184 107.58144 337.22368 183.631872c107.833344-59.355136 145.084416-189.19424 82.343936-291.213312-17.645568-31.533056-47.0528-59.357184-80.384-77.903872z" fill="#50adf5" p-id="9143"></path></svg>