<?xml version="1.0" standalone="no"?><!DOCTYPE svg PUBLIC "-//W3C//DTD SVG 1.1//EN" "http://www.w3.org/Graphics/SVG/1.1/DTD/svg11.dtd"><svg t="1781332478281" class="icon" viewBox="0 0 1024 1024" version="1.1" xmlns="http://www.w3.org/2000/svg" p-id="32363" xmlns:xlink="http://www.w3.org/1999/xlink" width="200" height="200"><path d="M21.8 366.7h982.6v51.1H21.8z" fill="#333333" p-id="32364"></path><path d="M253.8 118.8h51.1v802.8h-51.1z" fill="#333333" p-id="32365"></path><path d="M260.5 422.1L194 401.8c-61.1-16.4-102.5-61-100.8-108.5 0.6-18.1 7.9-36.2 21.1-52.3l1.5-1.9 1.9-1.5c17-14 34.9-21.1 53.2-21.1h0.2c53.4 0 101.3 58.7 116.5 142.8L302 422h-33.3l-2.1-0.4c-4.2-0.8-5.4-0.9-5.6-0.9 7.7 0.8 20.6-4.4 23.9-18 2.9-11.9-3.7-21.5-10.2-25.6L272 392v6.2l-4.3 1-7.2 22.9zM149.7 272.9c-5.6 7.4-8.7 15-8.9 22-0.7 20.8 22.1 49.2 65.9 60.9l0.8 0.2 32.7 10c-11.9-63.1-45-102-69.3-102h-0.1c-7.7 0.1-15.5 4.6-21.1 8.9z" fill="#333333" p-id="32366"></path><path d="M295.8 422.1l-7.2-22.9-4.3-1V392l-2.7-14.9c-6.5 4.1-13.1 13.7-10.2 25.6 3.3 13.6 16.2 18.8 23.9 18-0.1 0-1.4 0.2-5.6 0.9l-2.1 0.4h-33.3l14.6-62.7c15.2-84.2 63.1-142.8 116.5-142.8h0.2c18.2 0 36.1 7.2 53.2 21.1l1.8 1.5 1.5 1.9c13.1 16.1 20.4 34.2 21.1 52.3 1.7 47.6-39.7 92.1-100.8 108.5l-66.6 20.3z m89.6-158c-24.3 0-57.4 38.9-69.3 102l33.6-10.2c43.8-11.6 66.6-40 65.9-60.9-0.3-7-3.3-14.6-8.9-22-5.8-4.4-13.5-8.9-21.3-8.9z" fill="#333333" p-id="32367"></path><path d="M173.2 581.4h-0.2c-18.2 0-36.1-7.2-53.2-21.1l-1.9-1.5-1.5-1.9c-13.1-16.1-20.4-34.2-21.1-52.3-1.7-47.6 39.7-92.1 100.8-108.5l66.5-20.3 7.2 22.9 4.3 1v6.2l2.7 14.9c6.5-4.1 13.1-13.7 10.2-25.6-3.3-13.7-16.3-18.8-23.9-18 0.1 0 1.4-0.2 5.5-0.9l2.1-0.4H304l-14.6 62.7c-15 84.1-62.8 142.8-116.2 142.8z m-21.3-56.5c5.6 4.3 13.4 8.8 21.2 8.8h0.1c24.3 0 57.4-38.9 69.3-102L208.9 442c-43.8 11.6-66.6 40-65.9 60.9 0.3 7 3.4 14.6 8.9 22z" fill="#333333" p-id="32368"></path><path d="M387.6 581.4c-53.4 0-101.3-58.7-116.5-142.8l-14.6-62.7h33.3l2.1 0.4c4.1 0.8 5.4 0.9 5.5 0.9-7.7-0.8-20.6 4.4-23.9 18-2.9 12 3.7 21.5 10.2 25.6l2.7-14.9v-6.2l4.3-1 7.2-22.9 66.5 20.3c61.1 16.4 102.5 61 100.8 108.5-0.6 18.1-7.9 36.2-21.1 52.3l-1.5 1.9-1.9 1.5c-17 14-34.9 21.1-53.2 21.1h0.1z m-69.2-149.6c11.9 63.1 45 102 69.3 102h0.1c7.8 0 15.5-4.5 21.2-8.8 5.6-7.4 8.7-15 8.9-22 0.7-20.8-22.1-49.2-65.9-60.9l-0.8-0.2-32.8-10.1z" fill="#333333" p-id="32369"></path><path d="M967.3 923.2H54.5c-30 0-54.5-24.4-54.5-54.5V167c0-30 24.4-54.5 54.5-54.5h912.9c30 0 54.5 24.4 54.5 54.5v701.8c-0.1 30-24.5 54.4-54.6 54.4z m-912.8-763c-3.7 0-6.8 3.1-6.8 6.8v701.8c0 3.7 3.1 6.8 6.8 6.8h912.9c3.7 0 6.8-3.1 6.8-6.8V167c0-3.7-3.1-6.8-6.8-6.8H54.5z" fill="#333333" p-id="32370"></path></svg>