<?xml version="1.0" standalone="no"?><!DOCTYPE svg PUBLIC "-//W3C//DTD SVG 1.1//EN" "http://www.w3.org/Graphics/SVG/1.1/DTD/svg11.dtd"><svg t="1781256668408" class="icon" viewBox="0 0 1024 1024" version="1.1" xmlns="http://www.w3.org/2000/svg" p-id="9148" xmlns:xlink="http://www.w3.org/1999/xlink" width="200" height="200"><path d="M284.992 160l-5.984 24.992-118.016 544L152 768h156l-19.008 88.992L280 896h223.008l4.992-26.016 32.992-153.984h86.016c120.352 0 226.112-78.24 252.992-204 14.112-66.112-0.864-122.112-32-160-25.28-30.72-59.52-49.28-95.008-58.016-6.88-31.616-21.376-58.496-40.992-78.976C675.616 177.12 625.12 160 577.984 160z m52 64h240.992c31.392 0 66.016 12.128 88 35.008 22.016 22.88 34.88 55.488 23.04 111.008-21.12 98.976-95.904 153.984-190.016 153.984H360.96l-4.992 24.992L323.008 704H232z m80.992 47.008l-5.984 24.992-32.992 148-8.992 39.008h112.96c56.896 0 106.016-41.376 120-96.992h1.024c0.128-0.64-0.128-1.376 0-2.016 7.008-28 2.496-56.736-12.992-78.016-15.872-21.76-42.624-34.976-71.008-34.976z m51.008 64h51.008c10.016 0 15.264 2.88 19.008 8 3.744 5.12 6.368 13.376 2.976 25.984v0.992c-5.984 25.92-36.608 49.024-58.976 49.024h-32.992z m286.016 28c16.864 6.88 32.736 16.256 44 29.984 18.624 22.624 28.864 53.888 17.984 104.992-21.12 99.008-95.872 154.016-189.984 154.016H488.96l-4.992 24.992L451.008 832H360l14.016-64h0.96l5.024-26.016 32.992-153.984h86.016c120.352 0 226.112-78.24 252.992-204 1.504-7.264 2.112-14.016 3.008-20.992z" p-id="9149"></path></svg>